<?xml version="1.0" encoding="UTF-8" standalone="no"?>
<!DOCTYPE svg PUBLIC "-//W3C//DTD SVG 1.1//EN"
 "http://www.w3.org/Graphics/SVG/1.1/DTD/svg11.dtd">
<!-- Generated by graphviz version 8.1.0 (20230707.0739)
 -->
<!-- Pages: 1 -->
<svg width="2929pt" height="239pt"
 viewBox="0.00 0.00 2929.25 239.00" xmlns="http://www.w3.org/2000/svg" xmlns:xlink="http://www.w3.org/1999/xlink">
<g id="graph0" class="graph" transform="scale(1 1) rotate(0) translate(4 235)">
<polygon fill="white" stroke="none" points="-4,4 -4,-235 2925.25,-235 2925.25,4 -4,4"/>
<!-- 4828837920 -->
<g id="node1" class="node">
<title>4828837920</title>
<polygon fill="none" stroke="black" points="1.5,-194.5 1.5,-230.5 196.5,-230.5 196.5,-194.5 1.5,-194.5"/>
<text text-anchor="middle" x="16.25" y="-207.7" font-family="Times,serif" font-size="14.00">x1</text>
<polyline fill="none" stroke="black" points="31,-195 31,-230.5"/>
<text text-anchor="middle" x="70.88" y="-207.7" font-family="Times,serif" font-size="14.00">data 2.0000</text>
<polyline fill="none" stroke="black" points="110.75,-195 110.75,-230.5"/>
<text text-anchor="middle" x="153.62" y="-207.7" font-family="Times,serif" font-size="14.00">grad &#45;1.5000</text>
</g>
<!-- 4828837440* -->
<g id="node5" class="node">
<title>4828837440*</title>
<ellipse fill="none" stroke="black" cx="261" cy="-157.5" rx="27" ry="18"/>
<text text-anchor="middle" x="261" y="-152.45" font-family="Times,serif" font-size="14.00">*</text>
</g>
<!-- 4828837920&#45;&gt;4828837440* -->
<g id="edge11" class="edge">
<title>4828837920&#45;&gt;4828837440*</title>
<path fill="none" stroke="black" d="M170.28,-194.56C179.67,-191.75 189.12,-188.71 198,-185.5 208.31,-181.78 219.28,-177.08 229.1,-172.59"/>
<polygon fill="black" stroke="black" points="230.24,-175.46 237.82,-168.05 227.28,-169.11 230.24,-175.46"/>
</g>
<!-- 4828838976 -->
<g id="node2" class="node">
<title>4828838976</title>
<polygon fill="none" stroke="black" points="1683.75,-55.5 1683.75,-91.5 1864.5,-91.5 1864.5,-55.5 1683.75,-55.5"/>
<text text-anchor="middle" x="1693.62" y="-68.7" font-family="Times,serif" font-size="14.00"> </text>
<polyline fill="none" stroke="black" points="1703.5,-56 1703.5,-91.5"/>
<text text-anchor="middle" x="1743.38" y="-68.7" font-family="Times,serif" font-size="14.00">data 5.8284</text>
<polyline fill="none" stroke="black" points="1783.25,-56 1783.25,-91.5"/>
<text text-anchor="middle" x="1823.88" y="-68.7" font-family="Times,serif" font-size="14.00">grad 0.0429</text>
</g>
<!-- 4828838064+ -->
<g id="node12" class="node">
<title>4828838064+</title>
<ellipse fill="none" stroke="black" cx="1929.75" cy="-100.5" rx="27" ry="18"/>
<text text-anchor="middle" x="1929.75" y="-95.45" font-family="Times,serif" font-size="14.00">+</text>
</g>
<!-- 4828838976&#45;&gt;4828838064+ -->
<g id="edge19" class="edge">
<title>4828838976&#45;&gt;4828838064+</title>
<path fill="none" stroke="black" d="M1864.49,-89.21C1874.31,-90.93 1883.85,-92.61 1892.44,-94.12"/>
<polygon fill="black" stroke="black" points="1891.68,-97.71 1902.14,-96 1892.9,-90.82 1891.68,-97.71"/>
</g>
<!-- 4828838208+ -->
<g id="node21" class="node">
<title>4828838208+</title>
<ellipse fill="none" stroke="black" cx="1929.75" cy="-45.5" rx="27" ry="18"/>
<text text-anchor="middle" x="1929.75" y="-40.45" font-family="Times,serif" font-size="14.00">+</text>
</g>
<!-- 4828838976&#45;&gt;4828838208+ -->
<g id="edge17" class="edge">
<title>4828838976&#45;&gt;4828838208+</title>
<path fill="none" stroke="black" d="M1864.49,-57.21C1874.4,-55.41 1884.03,-53.65 1892.69,-52.07"/>
<polygon fill="black" stroke="black" points="1893.24,-55.35 1902.45,-50.11 1891.98,-48.46 1893.24,-55.35"/>
</g>
<!-- 4828838976exp -->
<g id="node3" class="node">
<title>4828838976exp</title>
<ellipse fill="none" stroke="black" cx="1618.5" cy="-73.5" rx="27" ry="18"/>
<text text-anchor="middle" x="1618.5" y="-68.45" font-family="Times,serif" font-size="14.00">exp</text>
</g>
<!-- 4828838976exp&#45;&gt;4828838976 -->
<g id="edge1" class="edge">
<title>4828838976exp&#45;&gt;4828838976</title>
<path fill="none" stroke="black" d="M1645.91,-73.5C1653.91,-73.5 1663.22,-73.5 1673.09,-73.5"/>
<polygon fill="black" stroke="black" points="1672.99,-77 1682.99,-73.5 1672.99,-70 1672.99,-77"/>
</g>
<!-- 4828837440 -->
<g id="node4" class="node">
<title>4828837440</title>
<polygon fill="none" stroke="black" points="324,-139.5 324,-175.5 542.25,-175.5 542.25,-139.5 324,-139.5"/>
<text text-anchor="middle" x="350.38" y="-152.7" font-family="Times,serif" font-size="14.00">x1*w1</text>
<polyline fill="none" stroke="black" points="376.75,-140 376.75,-175.5"/>
<text text-anchor="middle" x="418.88" y="-152.7" font-family="Times,serif" font-size="14.00">data &#45;6.0000</text>
<polyline fill="none" stroke="black" points="461,-140 461,-175.5"/>
<text text-anchor="middle" x="501.62" y="-152.7" font-family="Times,serif" font-size="14.00">grad 0.5000</text>
</g>
<!-- 4828830816+ -->
<g id="node7" class="node">
<title>4828830816+</title>
<ellipse fill="none" stroke="black" cx="605.25" cy="-129.5" rx="27" ry="18"/>
<text text-anchor="middle" x="605.25" y="-124.45" font-family="Times,serif" font-size="14.00">+</text>
</g>
<!-- 4828837440&#45;&gt;4828830816+ -->
<g id="edge23" class="edge">
<title>4828837440&#45;&gt;4828830816+</title>
<path fill="none" stroke="black" d="M541.87,-139.77C551.1,-138.25 559.95,-136.79 567.93,-135.48"/>
<polygon fill="black" stroke="black" points="568.29,-138.8 577.59,-133.72 567.16,-131.89 568.29,-138.8"/>
</g>
<!-- 4828837440*&#45;&gt;4828837440 -->
<g id="edge2" class="edge">
<title>4828837440*&#45;&gt;4828837440</title>
<path fill="none" stroke="black" d="M288.21,-157.5C295.58,-157.5 304.1,-157.5 313.25,-157.5"/>
<polygon fill="black" stroke="black" points="313.24,-161 323.24,-157.5 313.24,-154 313.24,-161"/>
</g>
<!-- 4828830816 -->
<g id="node6" class="node">
<title>4828830816</title>
<polygon fill="none" stroke="black" points="668.25,-111.5 668.25,-147.5 939,-147.5 939,-111.5 668.25,-111.5"/>
<text text-anchor="middle" x="720.88" y="-124.7" font-family="Times,serif" font-size="14.00">x1*w1 + x2*w2</text>
<polyline fill="none" stroke="black" points="773.5,-112 773.5,-147.5"/>
<text text-anchor="middle" x="815.62" y="-124.7" font-family="Times,serif" font-size="14.00">data &#45;6.0000</text>
<polyline fill="none" stroke="black" points="857.75,-112 857.75,-147.5"/>
<text text-anchor="middle" x="898.38" y="-124.7" font-family="Times,serif" font-size="14.00">grad 0.5000</text>
</g>
<!-- 4828835712+ -->
<g id="node23" class="node">
<title>4828835712+</title>
<ellipse fill="none" stroke="black" cx="1002" cy="-101.5" rx="27" ry="18"/>
<text text-anchor="middle" x="1002" y="-96.45" font-family="Times,serif" font-size="14.00">+</text>
</g>
<!-- 4828830816&#45;&gt;4828835712+ -->
<g id="edge20" class="edge">
<title>4828830816&#45;&gt;4828835712+</title>
<path fill="none" stroke="black" d="M930.66,-111.53C942.81,-109.8 954.35,-108.15 964.43,-106.71"/>
<polygon fill="black" stroke="black" points="964.74,-110.06 974.15,-105.19 963.76,-103.13 964.74,-110.06"/>
</g>
<!-- 4828830816+&#45;&gt;4828830816 -->
<g id="edge3" class="edge">
<title>4828830816+&#45;&gt;4828830816</title>
<path fill="none" stroke="black" d="M632.73,-129.5C639.96,-129.5 648.32,-129.5 657.38,-129.5"/>
<polygon fill="black" stroke="black" points="657.32,-133 667.32,-129.5 657.32,-126 657.32,-133"/>
</g>
<!-- 4828839504 -->
<g id="node8" class="node">
<title>4828839504</title>
<polygon fill="none" stroke="black" points="2430.75,-80.5 2430.75,-116.5 2611.5,-116.5 2611.5,-80.5 2430.75,-80.5"/>
<text text-anchor="middle" x="2440.62" y="-93.7" font-family="Times,serif" font-size="14.00"> </text>
<polyline fill="none" stroke="black" points="2450.5,-81 2450.5,-116.5"/>
<text text-anchor="middle" x="2490.38" y="-93.7" font-family="Times,serif" font-size="14.00">data 0.1464</text>
<polyline fill="none" stroke="black" points="2530.25,-81 2530.25,-116.5"/>
<text text-anchor="middle" x="2570.88" y="-93.7" font-family="Times,serif" font-size="14.00">grad 4.8284</text>
</g>
<!-- 4828838304* -->
<g id="node26" class="node">
<title>4828838304*</title>
<ellipse fill="none" stroke="black" cx="2674.5" cy="-72.5" rx="27" ry="18"/>
<text text-anchor="middle" x="2674.5" y="-67.45" font-family="Times,serif" font-size="14.00">*</text>
</g>
<!-- 4828839504&#45;&gt;4828838304* -->
<g id="edge12" class="edge">
<title>4828839504&#45;&gt;4828838304*</title>
<path fill="none" stroke="black" d="M2611.49,-83.15C2620.54,-81.6 2629.32,-80.09 2637.29,-78.72"/>
<polygon fill="black" stroke="black" points="2637.7,-82.03 2646.96,-76.89 2636.51,-75.13 2637.7,-82.03"/>
</g>
<!-- 4828839504**&#45;1 -->
<g id="node9" class="node">
<title>4828839504**&#45;1</title>
<ellipse fill="none" stroke="black" cx="2304.38" cy="-100.5" rx="27.81" ry="18"/>
<text text-anchor="middle" x="2304.38" y="-95.45" font-family="Times,serif" font-size="14.00">**&#45;1</text>
</g>
<!-- 4828839504**&#45;1&#45;&gt;4828839504 -->
<g id="edge4" class="edge">
<title>4828839504**&#45;1&#45;&gt;4828839504</title>
<path fill="none" stroke="black" d="M2332.57,-100.25C2354.88,-100.04 2387.92,-99.73 2420.07,-99.43"/>
<polygon fill="black" stroke="black" points="2419.96,-102.92 2429.93,-99.33 2419.89,-95.92 2419.96,-102.92"/>
</g>
<!-- 4828837536 -->
<g id="node10" class="node">
<title>4828837536</title>
<polygon fill="none" stroke="black" points="1066.5,-28.5 1066.5,-64.5 1247.25,-64.5 1247.25,-28.5 1066.5,-28.5"/>
<text text-anchor="middle" x="1076.38" y="-41.7" font-family="Times,serif" font-size="14.00"> </text>
<polyline fill="none" stroke="black" points="1086.25,-29 1086.25,-64.5"/>
<text text-anchor="middle" x="1126.12" y="-41.7" font-family="Times,serif" font-size="14.00">data 2.0000</text>
<polyline fill="none" stroke="black" points="1166,-29 1166,-64.5"/>
<text text-anchor="middle" x="1206.62" y="-41.7" font-family="Times,serif" font-size="14.00">grad 0.2203</text>
</g>
<!-- 4828839120* -->
<g id="node14" class="node">
<title>4828839120*</title>
<ellipse fill="none" stroke="black" cx="1311.75" cy="-73.5" rx="27" ry="18"/>
<text text-anchor="middle" x="1311.75" y="-68.45" font-family="Times,serif" font-size="14.00">*</text>
</g>
<!-- 4828837536&#45;&gt;4828839120* -->
<g id="edge18" class="edge">
<title>4828837536&#45;&gt;4828839120*</title>
<path fill="none" stroke="black" d="M1247.25,-62.28C1256.77,-63.97 1266.02,-65.6 1274.37,-67.08"/>
<polygon fill="black" stroke="black" points="1273.7,-70.69 1284.16,-68.98 1274.92,-63.79 1273.7,-70.69"/>
</g>
<!-- 4828838064 -->
<g id="node11" class="node">
<title>4828838064</title>
<polygon fill="none" stroke="black" points="1992.75,-82.5 1992.75,-118.5 2178,-118.5 2178,-82.5 1992.75,-82.5"/>
<text text-anchor="middle" x="2002.62" y="-95.7" font-family="Times,serif" font-size="14.00"> </text>
<polyline fill="none" stroke="black" points="2012.5,-83 2012.5,-118.5"/>
<text text-anchor="middle" x="2052.38" y="-95.7" font-family="Times,serif" font-size="14.00">data 6.8284</text>
<polyline fill="none" stroke="black" points="2092.25,-83 2092.25,-118.5"/>
<text text-anchor="middle" x="2135.12" y="-95.7" font-family="Times,serif" font-size="14.00">grad &#45;0.1036</text>
</g>
<!-- 4828838064&#45;&gt;4828839504**&#45;1 -->
<g id="edge27" class="edge">
<title>4828838064&#45;&gt;4828839504**&#45;1</title>
<path fill="none" stroke="black" d="M2177.77,-100.5C2208.57,-100.5 2241.26,-100.5 2265.56,-100.5"/>
<polygon fill="black" stroke="black" points="2265.44,-104 2275.44,-100.5 2265.44,-97 2265.44,-104"/>
</g>
<!-- 4828838064+&#45;&gt;4828838064 -->
<g id="edge5" class="edge">
<title>4828838064+&#45;&gt;4828838064</title>
<path fill="none" stroke="black" d="M1957.16,-100.5C1964.56,-100.5 1973.07,-100.5 1982.12,-100.5"/>
<polygon fill="black" stroke="black" points="1981.95,-104 1991.95,-100.5 1981.95,-97 1981.95,-104"/>
</g>
<!-- 4828839120 -->
<g id="node13" class="node">
<title>4828839120</title>
<polygon fill="none" stroke="black" points="1374.75,-55.5 1374.75,-91.5 1555.5,-91.5 1555.5,-55.5 1374.75,-55.5"/>
<text text-anchor="middle" x="1384.62" y="-68.7" font-family="Times,serif" font-size="14.00"> </text>
<polyline fill="none" stroke="black" points="1394.5,-56 1394.5,-91.5"/>
<text text-anchor="middle" x="1434.38" y="-68.7" font-family="Times,serif" font-size="14.00">data 1.7627</text>
<polyline fill="none" stroke="black" points="1474.25,-56 1474.25,-91.5"/>
<text text-anchor="middle" x="1514.88" y="-68.7" font-family="Times,serif" font-size="14.00">grad 0.2500</text>
</g>
<!-- 4828839120&#45;&gt;4828838976exp -->
<g id="edge16" class="edge">
<title>4828839120&#45;&gt;4828838976exp</title>
<path fill="none" stroke="black" d="M1555.49,-73.5C1564.08,-73.5 1572.42,-73.5 1580.06,-73.5"/>
<polygon fill="black" stroke="black" points="1580.05,-77 1590.05,-73.5 1580.05,-70 1580.05,-77"/>
</g>
<!-- 4828839120*&#45;&gt;4828839120 -->
<g id="edge6" class="edge">
<title>4828839120*&#45;&gt;4828839120</title>
<path fill="none" stroke="black" d="M1339.12,-73.5C1346.55,-73.5 1355.1,-73.5 1364.17,-73.5"/>
<polygon fill="black" stroke="black" points="1364.02,-77 1374.02,-73.5 1364.02,-70 1364.02,-77"/>
</g>
<!-- 4828838112 -->
<g id="node15" class="node">
<title>4828838112</title>
<polygon fill="none" stroke="black" points="711.75,-56.5 711.75,-92.5 895.5,-92.5 895.5,-56.5 711.75,-56.5"/>
<text text-anchor="middle" x="723.12" y="-69.7" font-family="Times,serif" font-size="14.00">b</text>
<polyline fill="none" stroke="black" points="734.5,-57 734.5,-92.5"/>
<text text-anchor="middle" x="774.38" y="-69.7" font-family="Times,serif" font-size="14.00">data 6.8814</text>
<polyline fill="none" stroke="black" points="814.25,-57 814.25,-92.5"/>
<text text-anchor="middle" x="854.88" y="-69.7" font-family="Times,serif" font-size="14.00">grad 0.5000</text>
</g>
<!-- 4828838112&#45;&gt;4828835712+ -->
<g id="edge26" class="edge">
<title>4828838112&#45;&gt;4828835712+</title>
<path fill="none" stroke="black" d="M895.34,-86.97C919.7,-90.32 944.68,-93.76 964.23,-96.44"/>
<polygon fill="black" stroke="black" points="963.69,-100.04 974.07,-97.93 964.64,-93.11 963.69,-100.04"/>
</g>
<!-- 4828838160 -->
<g id="node16" class="node">
<title>4828838160</title>
<polygon fill="none" stroke="black" points="1681.5,-0.5 1681.5,-36.5 1866.75,-36.5 1866.75,-0.5 1681.5,-0.5"/>
<text text-anchor="middle" x="1691.38" y="-13.7" font-family="Times,serif" font-size="14.00"> </text>
<polyline fill="none" stroke="black" points="1701.25,-1 1701.25,-36.5"/>
<text text-anchor="middle" x="1743.38" y="-13.7" font-family="Times,serif" font-size="14.00">data &#45;1.0000</text>
<polyline fill="none" stroke="black" points="1785.5,-1 1785.5,-36.5"/>
<text text-anchor="middle" x="1826.12" y="-13.7" font-family="Times,serif" font-size="14.00">grad 0.1464</text>
</g>
<!-- 4828838160&#45;&gt;4828838208+ -->
<g id="edge22" class="edge">
<title>4828838160&#45;&gt;4828838208+</title>
<path fill="none" stroke="black" d="M1866.71,-34.6C1875.79,-36.19 1884.59,-37.74 1892.57,-39.14"/>
<polygon fill="black" stroke="black" points="1891.79,-42.73 1902.24,-41.02 1893,-35.84 1891.79,-42.73"/>
</g>
<!-- 4828839696 -->
<g id="node17" class="node">
<title>4828839696</title>
<polygon fill="none" stroke="black" points="1681.5,-110.5 1681.5,-146.5 1866.75,-146.5 1866.75,-110.5 1681.5,-110.5"/>
<text text-anchor="middle" x="1691.38" y="-123.7" font-family="Times,serif" font-size="14.00"> </text>
<polyline fill="none" stroke="black" points="1701.25,-111 1701.25,-146.5"/>
<text text-anchor="middle" x="1741.12" y="-123.7" font-family="Times,serif" font-size="14.00">data 1.0000</text>
<polyline fill="none" stroke="black" points="1781,-111 1781,-146.5"/>
<text text-anchor="middle" x="1823.88" y="-123.7" font-family="Times,serif" font-size="14.00">grad &#45;0.1036</text>
</g>
<!-- 4828839696&#45;&gt;4828838064+ -->
<g id="edge15" class="edge">
<title>4828839696&#45;&gt;4828838064+</title>
<path fill="none" stroke="black" d="M1866.71,-111.81C1875.79,-110.15 1884.59,-108.55 1892.57,-107.09"/>
<polygon fill="black" stroke="black" points="1893.03,-110.39 1902.24,-105.15 1891.78,-103.5 1893.03,-110.39"/>
</g>
<!-- 4828837248 -->
<g id="node18" class="node">
<title>4828837248</title>
<polygon fill="none" stroke="black" points="326.25,-84.5 326.25,-120.5 540,-120.5 540,-84.5 326.25,-84.5"/>
<text text-anchor="middle" x="352.62" y="-97.7" font-family="Times,serif" font-size="14.00">x2*w2</text>
<polyline fill="none" stroke="black" points="379,-85 379,-120.5"/>
<text text-anchor="middle" x="418.88" y="-97.7" font-family="Times,serif" font-size="14.00">data 0.0000</text>
<polyline fill="none" stroke="black" points="458.75,-85 458.75,-120.5"/>
<text text-anchor="middle" x="499.38" y="-97.7" font-family="Times,serif" font-size="14.00">grad 0.5000</text>
</g>
<!-- 4828837248&#45;&gt;4828830816+ -->
<g id="edge25" class="edge">
<title>4828837248&#45;&gt;4828830816+</title>
<path fill="none" stroke="black" d="M539.93,-119.29C549.89,-120.87 559.45,-122.39 568.01,-123.75"/>
<polygon fill="black" stroke="black" points="567.21,-127.32 577.64,-125.43 568.31,-120.41 567.21,-127.32"/>
</g>
<!-- 4828837248* -->
<g id="node19" class="node">
<title>4828837248*</title>
<ellipse fill="none" stroke="black" cx="261" cy="-102.5" rx="27" ry="18"/>
<text text-anchor="middle" x="261" y="-97.45" font-family="Times,serif" font-size="14.00">*</text>
</g>
<!-- 4828837248*&#45;&gt;4828837248 -->
<g id="edge7" class="edge">
<title>4828837248*&#45;&gt;4828837248</title>
<path fill="none" stroke="black" d="M288.21,-102.5C296.23,-102.5 305.63,-102.5 315.71,-102.5"/>
<polygon fill="black" stroke="black" points="315.43,-106 325.43,-102.5 315.43,-99 315.43,-106"/>
</g>
<!-- 4828838208 -->
<g id="node20" class="node">
<title>4828838208</title>
<polygon fill="none" stroke="black" points="2214,-27.5 2214,-63.5 2394.75,-63.5 2394.75,-27.5 2214,-27.5"/>
<text text-anchor="middle" x="2223.88" y="-40.7" font-family="Times,serif" font-size="14.00"> </text>
<polyline fill="none" stroke="black" points="2233.75,-28 2233.75,-63.5"/>
<text text-anchor="middle" x="2273.62" y="-40.7" font-family="Times,serif" font-size="14.00">data 4.8284</text>
<polyline fill="none" stroke="black" points="2313.5,-28 2313.5,-63.5"/>
<text text-anchor="middle" x="2354.12" y="-40.7" font-family="Times,serif" font-size="14.00">grad 0.1464</text>
</g>
<!-- 4828838208&#45;&gt;4828838304* -->
<g id="edge13" class="edge">
<title>4828838208&#45;&gt;4828838304*</title>
<path fill="none" stroke="black" d="M2394.49,-52.04C2471.93,-57.72 2580.25,-65.66 2636.42,-69.78"/>
<polygon fill="black" stroke="black" points="2636.03,-73.33 2646.26,-70.58 2636.54,-66.35 2636.03,-73.33"/>
</g>
<!-- 4828838208+&#45;&gt;4828838208 -->
<g id="edge8" class="edge">
<title>4828838208+&#45;&gt;4828838208</title>
<path fill="none" stroke="black" d="M1957.25,-45.5C2007.82,-45.5 2120.46,-45.5 2203.58,-45.5"/>
<polygon fill="black" stroke="black" points="2203.33,-49 2213.33,-45.5 2203.33,-42 2203.33,-49"/>
</g>
<!-- 4828835712 -->
<g id="node22" class="node">
<title>4828835712</title>
<polygon fill="none" stroke="black" points="1065,-83.5 1065,-119.5 1248.75,-119.5 1248.75,-83.5 1065,-83.5"/>
<text text-anchor="middle" x="1076.38" y="-96.7" font-family="Times,serif" font-size="14.00">n</text>
<polyline fill="none" stroke="black" points="1087.75,-84 1087.75,-119.5"/>
<text text-anchor="middle" x="1127.62" y="-96.7" font-family="Times,serif" font-size="14.00">data 0.8814</text>
<polyline fill="none" stroke="black" points="1167.5,-84 1167.5,-119.5"/>
<text text-anchor="middle" x="1208.12" y="-96.7" font-family="Times,serif" font-size="14.00">grad 0.5000</text>
</g>
<!-- 4828835712&#45;&gt;4828839120* -->
<g id="edge21" class="edge">
<title>4828835712&#45;&gt;4828839120*</title>
<path fill="none" stroke="black" d="M1248.57,-84.89C1257.66,-83.22 1266.47,-81.61 1274.46,-80.15"/>
<polygon fill="black" stroke="black" points="1274.96,-83.43 1284.16,-78.19 1273.7,-76.55 1274.96,-83.43"/>
</g>
<!-- 4828835712+&#45;&gt;4828835712 -->
<g id="edge9" class="edge">
<title>4828835712+&#45;&gt;4828835712</title>
<path fill="none" stroke="black" d="M1029.28,-101.5C1036.7,-101.5 1045.26,-101.5 1054.35,-101.5"/>
<polygon fill="black" stroke="black" points="1054.22,-105 1064.22,-101.5 1054.22,-98 1054.22,-105"/>
</g>
<!-- 4828839312 -->
<g id="node24" class="node">
<title>4828839312</title>
<polygon fill="none" stroke="black" points="3.75,-84.5 3.75,-120.5 194.25,-120.5 194.25,-84.5 3.75,-84.5"/>
<text text-anchor="middle" x="18.5" y="-97.7" font-family="Times,serif" font-size="14.00">x2</text>
<polyline fill="none" stroke="black" points="33.25,-85 33.25,-120.5"/>
<text text-anchor="middle" x="73.12" y="-97.7" font-family="Times,serif" font-size="14.00">data 0.0000</text>
<polyline fill="none" stroke="black" points="113,-85 113,-120.5"/>
<text text-anchor="middle" x="153.62" y="-97.7" font-family="Times,serif" font-size="14.00">grad 0.5000</text>
</g>
<!-- 4828839312&#45;&gt;4828837248* -->
<g id="edge28" class="edge">
<title>4828839312&#45;&gt;4828837248*</title>
<path fill="none" stroke="black" d="M194,-102.5C204.12,-102.5 213.93,-102.5 222.76,-102.5"/>
<polygon fill="black" stroke="black" points="222.74,-106 232.74,-102.5 222.74,-99 222.74,-106"/>
</g>
<!-- 4828838304 -->
<g id="node25" class="node">
<title>4828838304</title>
<polygon fill="none" stroke="black" points="2737.5,-54.5 2737.5,-90.5 2921.25,-90.5 2921.25,-54.5 2737.5,-54.5"/>
<text text-anchor="middle" x="2748.88" y="-67.7" font-family="Times,serif" font-size="14.00">o</text>
<polyline fill="none" stroke="black" points="2760.25,-55 2760.25,-90.5"/>
<text text-anchor="middle" x="2800.12" y="-67.7" font-family="Times,serif" font-size="14.00">data 0.7071</text>
<polyline fill="none" stroke="black" points="2840,-55 2840,-90.5"/>
<text text-anchor="middle" x="2880.62" y="-67.7" font-family="Times,serif" font-size="14.00">grad 1.0000</text>
</g>
<!-- 4828838304*&#45;&gt;4828838304 -->
<g id="edge10" class="edge">
<title>4828838304*&#45;&gt;4828838304</title>
<path fill="none" stroke="black" d="M2701.78,-72.5C2709.2,-72.5 2717.76,-72.5 2726.85,-72.5"/>
<polygon fill="black" stroke="black" points="2726.72,-76 2736.72,-72.5 2726.72,-69 2726.72,-76"/>
</g>
<!-- 4828837824 -->
<g id="node27" class="node">
<title>4828837824</title>
<polygon fill="none" stroke="black" points="0,-139.5 0,-175.5 198,-175.5 198,-139.5 0,-139.5"/>
<text text-anchor="middle" x="16.25" y="-152.7" font-family="Times,serif" font-size="14.00">w1</text>
<polyline fill="none" stroke="black" points="32.5,-140 32.5,-175.5"/>
<text text-anchor="middle" x="74.62" y="-152.7" font-family="Times,serif" font-size="14.00">data &#45;3.0000</text>
<polyline fill="none" stroke="black" points="116.75,-140 116.75,-175.5"/>
<text text-anchor="middle" x="157.38" y="-152.7" font-family="Times,serif" font-size="14.00">grad 1.0000</text>
</g>
<!-- 4828837824&#45;&gt;4828837440* -->
<g id="edge14" class="edge">
<title>4828837824&#45;&gt;4828837440*</title>
<path fill="none" stroke="black" d="M197.68,-157.5C206.51,-157.5 215.04,-157.5 222.8,-157.5"/>
<polygon fill="black" stroke="black" points="222.58,-161 232.58,-157.5 222.58,-154 222.58,-161"/>
</g>
<!-- 4828837872 -->
<g id="node28" class="node">
<title>4828837872</title>
<polygon fill="none" stroke="black" points="2.25,-29.5 2.25,-65.5 195.75,-65.5 195.75,-29.5 2.25,-29.5"/>
<text text-anchor="middle" x="18.5" y="-42.7" font-family="Times,serif" font-size="14.00">w2</text>
<polyline fill="none" stroke="black" points="34.75,-30 34.75,-65.5"/>
<text text-anchor="middle" x="74.62" y="-42.7" font-family="Times,serif" font-size="14.00">data 1.0000</text>
<polyline fill="none" stroke="black" points="114.5,-30 114.5,-65.5"/>
<text text-anchor="middle" x="155.12" y="-42.7" font-family="Times,serif" font-size="14.00">grad 0.0000</text>
</g>
<!-- 4828837872&#45;&gt;4828837248* -->
<g id="edge24" class="edge">
<title>4828837872&#45;&gt;4828837248*</title>
<path fill="none" stroke="black" d="M167.33,-65.46C177.67,-68.59 188.17,-71.97 198,-75.5 208.06,-79.11 218.81,-83.57 228.49,-87.82"/>
<polygon fill="black" stroke="black" points="226.92,-91.4 237.48,-92.29 229.78,-85.01 226.92,-91.4"/>
</g>
</g>
</svg>
