<?xml version="1.0" encoding="UTF-8" standalone="no"?>
<!DOCTYPE svg PUBLIC "-//W3C//DTD SVG 1.1//EN"
 "http://www.w3.org/Graphics/SVG/1.1/DTD/svg11.dtd">
<!-- Generated by graphviz version 8.1.0 (20230707.0739)
 -->
<!-- Pages: 1 -->
<svg width="3080pt" height="210pt"
 viewBox="0.00 0.00 3080.00 210.00" xmlns="http://www.w3.org/2000/svg" xmlns:xlink="http://www.w3.org/1999/xlink">
<g id="graph0" class="graph" transform="scale(1 1) rotate(0) translate(4 206)">
<polygon fill="white" stroke="none" points="-4,4 -4,-206 3076,-206 3076,4 -4,4"/>
<!-- 4552599552 -->
<g id="node1" class="node">
<title>4552599552</title>
<polygon fill="none" stroke="black" points="2581.5,-57.5 2581.5,-93.5 2762.25,-93.5 2762.25,-57.5 2581.5,-57.5"/>
<text text-anchor="middle" x="2591.38" y="-70.7" font-family="Times,serif" font-size="14.00"> </text>
<polyline fill="none" stroke="black" points="2601.25,-58 2601.25,-93.5"/>
<text text-anchor="middle" x="2641.12" y="-70.7" font-family="Times,serif" font-size="14.00">data 0.1464</text>
<polyline fill="none" stroke="black" points="2681,-58 2681,-93.5"/>
<text text-anchor="middle" x="2721.62" y="-70.7" font-family="Times,serif" font-size="14.00">grad 4.8284</text>
</g>
<!-- 4552598208* -->
<g id="node13" class="node">
<title>4552598208*</title>
<ellipse fill="none" stroke="black" cx="2825.25" cy="-98.5" rx="27" ry="18"/>
<text text-anchor="middle" x="2825.25" y="-93.45" font-family="Times,serif" font-size="14.00">*</text>
</g>
<!-- 4552599552&#45;&gt;4552598208* -->
<g id="edge17" class="edge">
<title>4552599552&#45;&gt;4552598208*</title>
<path fill="none" stroke="black" d="M2762.24,-89.08C2771.1,-90.42 2779.7,-91.73 2787.54,-92.92"/>
<polygon fill="black" stroke="black" points="2787,-96.53 2797.41,-94.57 2788.05,-89.61 2787,-96.53"/>
</g>
<!-- 4552599552**other -->
<g id="node2" class="node">
<title>4552599552**other</title>
<ellipse fill="none" stroke="black" cx="2455.12" cy="-71.5" rx="39.07" ry="18"/>
<text text-anchor="middle" x="2455.12" y="-66.45" font-family="Times,serif" font-size="14.00">**other</text>
</g>
<!-- 4552599552**other&#45;&gt;4552599552 -->
<g id="edge1" class="edge">
<title>4552599552**other&#45;&gt;4552599552</title>
<path fill="none" stroke="black" d="M2494.52,-72.22C2515.93,-72.61 2543.68,-73.13 2570.8,-73.64"/>
<polygon fill="black" stroke="black" points="2570.49,-77.15 2580.56,-73.84 2570.63,-70.15 2570.49,-77.15"/>
</g>
<!-- 4552591920 -->
<g id="node3" class="node">
<title>4552591920</title>
<polygon fill="none" stroke="black" points="1812,-136.5 1812,-172.5 1997.25,-172.5 1997.25,-136.5 1812,-136.5"/>
<text text-anchor="middle" x="1821.88" y="-149.7" font-family="Times,serif" font-size="14.00"> </text>
<polyline fill="none" stroke="black" points="1831.75,-137 1831.75,-172.5"/>
<text text-anchor="middle" x="1873.88" y="-149.7" font-family="Times,serif" font-size="14.00">data &#45;1.0000</text>
<polyline fill="none" stroke="black" points="1916,-137 1916,-172.5"/>
<text text-anchor="middle" x="1956.62" y="-149.7" font-family="Times,serif" font-size="14.00">grad 0.1464</text>
</g>
<!-- 4552591968+ -->
<g id="node5" class="node">
<title>4552591968+</title>
<ellipse fill="none" stroke="black" cx="2067" cy="-126.5" rx="27" ry="18"/>
<text text-anchor="middle" x="2067" y="-121.45" font-family="Times,serif" font-size="14.00">+</text>
</g>
<!-- 4552591920&#45;&gt;4552591968+ -->
<g id="edge26" class="edge">
<title>4552591920&#45;&gt;4552591968+</title>
<path fill="none" stroke="black" d="M1997.06,-138.54C2008.61,-136.52 2019.84,-134.56 2029.77,-132.83"/>
<polygon fill="black" stroke="black" points="2030.13,-136.14 2039.38,-130.97 2028.92,-129.25 2030.13,-136.14"/>
</g>
<!-- 4552591968 -->
<g id="node4" class="node">
<title>4552591968</title>
<polygon fill="none" stroke="black" points="2364.75,-108.5 2364.75,-144.5 2545.5,-144.5 2545.5,-108.5 2364.75,-108.5"/>
<text text-anchor="middle" x="2374.62" y="-121.7" font-family="Times,serif" font-size="14.00"> </text>
<polyline fill="none" stroke="black" points="2384.5,-109 2384.5,-144.5"/>
<text text-anchor="middle" x="2424.38" y="-121.7" font-family="Times,serif" font-size="14.00">data 4.8284</text>
<polyline fill="none" stroke="black" points="2464.25,-109 2464.25,-144.5"/>
<text text-anchor="middle" x="2504.88" y="-121.7" font-family="Times,serif" font-size="14.00">grad 0.1464</text>
</g>
<!-- 4552591968&#45;&gt;4552598208* -->
<g id="edge25" class="edge">
<title>4552591968&#45;&gt;4552598208*</title>
<path fill="none" stroke="black" d="M2545.21,-119.94C2606.3,-115.4 2689.19,-109.19 2762.25,-103.5 2770.32,-102.87 2778.98,-102.18 2787.19,-101.52"/>
<polygon fill="black" stroke="black" points="2787.32,-104.94 2797.01,-100.65 2786.76,-97.96 2787.32,-104.94"/>
</g>
<!-- 4552591968+&#45;&gt;4552591968 -->
<g id="edge2" class="edge">
<title>4552591968+&#45;&gt;4552591968</title>
<path fill="none" stroke="black" d="M2094.24,-126.5C2146.65,-126.5 2266.75,-126.5 2353.82,-126.5"/>
<polygon fill="black" stroke="black" points="2353.81,-130 2363.81,-126.5 2353.81,-123 2353.81,-130"/>
</g>
<!-- 4552593024 -->
<g id="node6" class="node">
<title>4552593024</title>
<polygon fill="none" stroke="black" points="1805.25,-26.5 1805.25,-62.5 2004,-62.5 2004,-26.5 1805.25,-26.5"/>
<text text-anchor="middle" x="1815.12" y="-39.7" font-family="Times,serif" font-size="14.00"> </text>
<polyline fill="none" stroke="black" points="1825,-27 1825,-62.5"/>
<text text-anchor="middle" x="1864.88" y="-39.7" font-family="Times,serif" font-size="14.00">data 1.0000</text>
<polyline fill="none" stroke="black" points="1904.75,-27 1904.75,-62.5"/>
<text text-anchor="middle" x="1954.38" y="-39.7" font-family="Times,serif" font-size="14.00">grad &#45;225.1371</text>
</g>
<!-- 4552593072+ -->
<g id="node11" class="node">
<title>4552593072+</title>
<ellipse fill="none" stroke="black" cx="2067" cy="-71.5" rx="27" ry="18"/>
<text text-anchor="middle" x="2067" y="-66.45" font-family="Times,serif" font-size="14.00">+</text>
</g>
<!-- 4552593024&#45;&gt;4552593072+ -->
<g id="edge11" class="edge">
<title>4552593024&#45;&gt;4552593072+</title>
<path fill="none" stroke="black" d="M2003.99,-61.06C2013.07,-62.59 2021.82,-64.06 2029.75,-65.4"/>
<polygon fill="black" stroke="black" points="2028.9,-68.97 2039.34,-67.18 2030.06,-62.07 2028.9,-68.97"/>
</g>
<!-- 4552591488 -->
<g id="node7" class="node">
<title>4552591488</title>
<polygon fill="none" stroke="black" points="1140.75,-109.5 1140.75,-145.5 1346.25,-145.5 1346.25,-109.5 1140.75,-109.5"/>
<text text-anchor="middle" x="1150.62" y="-122.7" font-family="Times,serif" font-size="14.00"> </text>
<polyline fill="none" stroke="black" points="1160.5,-110 1160.5,-145.5"/>
<text text-anchor="middle" x="1200.38" y="-122.7" font-family="Times,serif" font-size="14.00">data 2.0000</text>
<polyline fill="none" stroke="black" points="1240.25,-110 1240.25,-145.5"/>
<text text-anchor="middle" x="1293.25" y="-122.7" font-family="Times,serif" font-size="14.00">grad &#45;1155.7818</text>
</g>
<!-- 4552591584* -->
<g id="node17" class="node">
<title>4552591584*</title>
<ellipse fill="none" stroke="black" cx="1410.75" cy="-99.5" rx="27" ry="18"/>
<text text-anchor="middle" x="1410.75" y="-94.45" font-family="Times,serif" font-size="14.00">*</text>
</g>
<!-- 4552591488&#45;&gt;4552591584* -->
<g id="edge16" class="edge">
<title>4552591488&#45;&gt;4552591584*</title>
<path fill="none" stroke="black" d="M1345.86,-110.33C1355.71,-108.66 1365.18,-107.05 1373.68,-105.61"/>
<polygon fill="black" stroke="black" points="1373.96,-108.94 1383.24,-103.82 1372.79,-102.04 1373.96,-108.94"/>
</g>
<!-- 4551208064 -->
<g id="node8" class="node">
<title>4551208064</title>
<polygon fill="none" stroke="black" points="351,-110.5 351,-146.5 589.5,-146.5 589.5,-110.5 351,-110.5"/>
<text text-anchor="middle" x="377.38" y="-123.7" font-family="Times,serif" font-size="14.00">x2*w2</text>
<polyline fill="none" stroke="black" points="403.75,-111 403.75,-146.5"/>
<text text-anchor="middle" x="443.62" y="-123.7" font-family="Times,serif" font-size="14.00">data 0.0000</text>
<polyline fill="none" stroke="black" points="483.5,-111 483.5,-146.5"/>
<text text-anchor="middle" x="536.5" y="-123.7" font-family="Times,serif" font-size="14.00">grad &#45;2622.6831</text>
</g>
<!-- 4551210176+ -->
<g id="node15" class="node">
<title>4551210176+</title>
<ellipse fill="none" stroke="black" cx="654.75" cy="-100.5" rx="27" ry="18"/>
<text text-anchor="middle" x="654.75" y="-95.45" font-family="Times,serif" font-size="14.00">+</text>
</g>
<!-- 4551208064&#45;&gt;4551210176+ -->
<g id="edge22" class="edge">
<title>4551208064&#45;&gt;4551210176+</title>
<path fill="none" stroke="black" d="M588.38,-110.53C598.71,-108.94 608.55,-107.43 617.33,-106.09"/>
<polygon fill="black" stroke="black" points="617.84,-109.4 627.19,-104.42 616.77,-102.48 617.84,-109.4"/>
</g>
<!-- 4551208064* -->
<g id="node9" class="node">
<title>4551208064*</title>
<ellipse fill="none" stroke="black" cx="285.75" cy="-128.5" rx="27" ry="18"/>
<text text-anchor="middle" x="285.75" y="-123.45" font-family="Times,serif" font-size="14.00">*</text>
</g>
<!-- 4551208064*&#45;&gt;4551208064 -->
<g id="edge3" class="edge">
<title>4551208064*&#45;&gt;4551208064</title>
<path fill="none" stroke="black" d="M312.9,-128.5C320.87,-128.5 330.23,-128.5 340.33,-128.5"/>
<polygon fill="black" stroke="black" points="340.11,-132 350.11,-128.5 340.11,-125 340.11,-132"/>
</g>
<!-- 4552593072 -->
<g id="node10" class="node">
<title>4552593072</title>
<polygon fill="none" stroke="black" points="2130,-53.5 2130,-89.5 2328.75,-89.5 2328.75,-53.5 2130,-53.5"/>
<text text-anchor="middle" x="2139.88" y="-66.7" font-family="Times,serif" font-size="14.00"> </text>
<polyline fill="none" stroke="black" points="2149.75,-54 2149.75,-89.5"/>
<text text-anchor="middle" x="2189.62" y="-66.7" font-family="Times,serif" font-size="14.00">data 6.8284</text>
<polyline fill="none" stroke="black" points="2229.5,-54 2229.5,-89.5"/>
<text text-anchor="middle" x="2279.12" y="-66.7" font-family="Times,serif" font-size="14.00">grad &#45;225.1371</text>
</g>
<!-- 4552593072&#45;&gt;4552599552**other -->
<g id="edge15" class="edge">
<title>4552593072&#45;&gt;4552599552**other</title>
<path fill="none" stroke="black" d="M2328.52,-71.5C2354.93,-71.5 2382.39,-71.5 2404.87,-71.5"/>
<polygon fill="black" stroke="black" points="2404.81,-75 2414.81,-71.5 2404.81,-68 2404.81,-75"/>
</g>
<!-- 4552593072+&#45;&gt;4552593072 -->
<g id="edge4" class="edge">
<title>4552593072+&#45;&gt;4552593072</title>
<path fill="none" stroke="black" d="M2094.48,-71.5C2101.84,-71.5 2110.31,-71.5 2119.34,-71.5"/>
<polygon fill="black" stroke="black" points="2119.17,-75 2129.17,-71.5 2119.17,-68 2119.17,-75"/>
</g>
<!-- 4552598208 -->
<g id="node12" class="node">
<title>4552598208</title>
<polygon fill="none" stroke="black" points="2888.25,-80.5 2888.25,-116.5 3072,-116.5 3072,-80.5 2888.25,-80.5"/>
<text text-anchor="middle" x="2899.62" y="-93.7" font-family="Times,serif" font-size="14.00">o</text>
<polyline fill="none" stroke="black" points="2911,-81 2911,-116.5"/>
<text text-anchor="middle" x="2950.88" y="-93.7" font-family="Times,serif" font-size="14.00">data 0.7071</text>
<polyline fill="none" stroke="black" points="2990.75,-81 2990.75,-116.5"/>
<text text-anchor="middle" x="3031.38" y="-93.7" font-family="Times,serif" font-size="14.00">grad 1.0000</text>
</g>
<!-- 4552598208*&#45;&gt;4552598208 -->
<g id="edge5" class="edge">
<title>4552598208*&#45;&gt;4552598208</title>
<path fill="none" stroke="black" d="M2852.53,-98.5C2859.95,-98.5 2868.51,-98.5 2877.6,-98.5"/>
<polygon fill="black" stroke="black" points="2877.47,-102 2887.47,-98.5 2877.47,-95 2877.47,-102"/>
</g>
<!-- 4551210176 -->
<g id="node14" class="node">
<title>4551210176</title>
<polygon fill="none" stroke="black" points="717.75,-82.5 717.75,-118.5 1013.25,-118.5 1013.25,-82.5 717.75,-82.5"/>
<text text-anchor="middle" x="770.38" y="-95.7" font-family="Times,serif" font-size="14.00">x1*w1 + x2*w2</text>
<polyline fill="none" stroke="black" points="823,-83 823,-118.5"/>
<text text-anchor="middle" x="865.12" y="-95.7" font-family="Times,serif" font-size="14.00">data &#45;6.0000</text>
<polyline fill="none" stroke="black" points="907.25,-83 907.25,-118.5"/>
<text text-anchor="middle" x="960.25" y="-95.7" font-family="Times,serif" font-size="14.00">grad &#45;2622.6831</text>
</g>
<!-- 4551209456+ -->
<g id="node28" class="node">
<title>4551209456+</title>
<ellipse fill="none" stroke="black" cx="1076.25" cy="-72.5" rx="27" ry="18"/>
<text text-anchor="middle" x="1076.25" y="-67.45" font-family="Times,serif" font-size="14.00">+</text>
</g>
<!-- 4551210176&#45;&gt;4551209456+ -->
<g id="edge21" class="edge">
<title>4551210176&#45;&gt;4551209456+</title>
<path fill="none" stroke="black" d="M1000.48,-82.53C1014.41,-80.66 1027.58,-78.89 1038.87,-77.38"/>
<polygon fill="black" stroke="black" points="1039.04,-80.75 1048.49,-75.96 1038.11,-73.82 1039.04,-80.75"/>
</g>
<!-- 4551210176+&#45;&gt;4551210176 -->
<g id="edge6" class="edge">
<title>4551210176+&#45;&gt;4551210176</title>
<path fill="none" stroke="black" d="M682.19,-100.5C689.52,-100.5 698.05,-100.5 707.33,-100.5"/>
<polygon fill="black" stroke="black" points="707.11,-104 717.11,-100.5 707.11,-97 707.11,-104"/>
</g>
<!-- 4552591584 -->
<g id="node16" class="node">
<title>4552591584</title>
<polygon fill="none" stroke="black" points="1473.75,-81.5 1473.75,-117.5 1679.25,-117.5 1679.25,-81.5 1473.75,-81.5"/>
<text text-anchor="middle" x="1483.62" y="-94.7" font-family="Times,serif" font-size="14.00"> </text>
<polyline fill="none" stroke="black" points="1493.5,-82 1493.5,-117.5"/>
<text text-anchor="middle" x="1533.38" y="-94.7" font-family="Times,serif" font-size="14.00">data 1.7627</text>
<polyline fill="none" stroke="black" points="1573.25,-82 1573.25,-117.5"/>
<text text-anchor="middle" x="1626.25" y="-94.7" font-family="Times,serif" font-size="14.00">grad &#45;1311.3415</text>
</g>
<!-- 4552591728exp -->
<g id="node24" class="node">
<title>4552591728exp</title>
<ellipse fill="none" stroke="black" cx="1742.25" cy="-99.5" rx="27" ry="18"/>
<text text-anchor="middle" x="1742.25" y="-94.45" font-family="Times,serif" font-size="14.00">exp</text>
</g>
<!-- 4552591584&#45;&gt;4552591728exp -->
<g id="edge18" class="edge">
<title>4552591584&#45;&gt;4552591728exp</title>
<path fill="none" stroke="black" d="M1678.88,-99.5C1687.76,-99.5 1696.31,-99.5 1704.09,-99.5"/>
<polygon fill="black" stroke="black" points="1703.88,-103 1713.88,-99.5 1703.88,-96 1703.88,-103"/>
</g>
<!-- 4552591584*&#45;&gt;4552591584 -->
<g id="edge7" class="edge">
<title>4552591584*&#45;&gt;4552591584</title>
<path fill="none" stroke="black" d="M1438.06,-99.5C1445.4,-99.5 1453.87,-99.5 1462.93,-99.5"/>
<polygon fill="black" stroke="black" points="1462.8,-103 1472.8,-99.5 1462.8,-96 1462.8,-103"/>
</g>
<!-- 4552371856 -->
<g id="node18" class="node">
<title>4552371856</title>
<polygon fill="none" stroke="black" points="14.62,-165.5 14.62,-201.5 208.12,-201.5 208.12,-165.5 14.62,-165.5"/>
<text text-anchor="middle" x="30.88" y="-178.7" font-family="Times,serif" font-size="14.00">w2</text>
<polyline fill="none" stroke="black" points="47.12,-166 47.12,-201.5"/>
<text text-anchor="middle" x="87" y="-178.7" font-family="Times,serif" font-size="14.00">data 1.0000</text>
<polyline fill="none" stroke="black" points="126.88,-166 126.88,-201.5"/>
<text text-anchor="middle" x="167.5" y="-178.7" font-family="Times,serif" font-size="14.00">grad 0.0000</text>
</g>
<!-- 4552371856&#45;&gt;4551208064* -->
<g id="edge23" class="edge">
<title>4552371856&#45;&gt;4551208064*</title>
<path fill="none" stroke="black" d="M193.35,-165.52C203.33,-162.76 213.33,-159.75 222.75,-156.5 233.11,-152.93 244.1,-148.27 253.91,-143.78"/>
<polygon fill="black" stroke="black" points="255.06,-146.63 262.62,-139.21 252.09,-140.3 255.06,-146.63"/>
</g>
<!-- 4552373104 -->
<g id="node19" class="node">
<title>4552373104</title>
<polygon fill="none" stroke="black" points="3.75,-110.5 3.75,-146.5 219,-146.5 219,-110.5 3.75,-110.5"/>
<text text-anchor="middle" x="18.5" y="-123.7" font-family="Times,serif" font-size="14.00">x2</text>
<polyline fill="none" stroke="black" points="33.25,-111 33.25,-146.5"/>
<text text-anchor="middle" x="73.12" y="-123.7" font-family="Times,serif" font-size="14.00">data 0.0000</text>
<polyline fill="none" stroke="black" points="113,-111 113,-146.5"/>
<text text-anchor="middle" x="166" y="-123.7" font-family="Times,serif" font-size="14.00">grad &#45;2622.6831</text>
</g>
<!-- 4552373104&#45;&gt;4551208064* -->
<g id="edge12" class="edge">
<title>4552373104&#45;&gt;4551208064*</title>
<path fill="none" stroke="black" d="M218.6,-128.5C228.81,-128.5 238.63,-128.5 247.43,-128.5"/>
<polygon fill="black" stroke="black" points="247.36,-132 257.36,-128.5 247.36,-125 247.36,-132"/>
</g>
<!-- 4552372960 -->
<g id="node20" class="node">
<title>4552372960</title>
<polygon fill="none" stroke="black" points="348.75,-55.5 348.75,-91.5 591.75,-91.5 591.75,-55.5 348.75,-55.5"/>
<text text-anchor="middle" x="375.12" y="-68.7" font-family="Times,serif" font-size="14.00">x1*w1</text>
<polyline fill="none" stroke="black" points="401.5,-56 401.5,-91.5"/>
<text text-anchor="middle" x="443.62" y="-68.7" font-family="Times,serif" font-size="14.00">data &#45;6.0000</text>
<polyline fill="none" stroke="black" points="485.75,-56 485.75,-91.5"/>
<text text-anchor="middle" x="538.75" y="-68.7" font-family="Times,serif" font-size="14.00">grad &#45;2622.6831</text>
</g>
<!-- 4552372960&#45;&gt;4551210176+ -->
<g id="edge27" class="edge">
<title>4552372960&#45;&gt;4551210176+</title>
<path fill="none" stroke="black" d="M591.71,-91.32C600.83,-92.67 609.51,-93.95 617.33,-95.11"/>
<polygon fill="black" stroke="black" points="616.73,-98.71 627.14,-96.71 617.76,-91.78 616.73,-98.71"/>
</g>
<!-- 4552372960* -->
<g id="node21" class="node">
<title>4552372960*</title>
<ellipse fill="none" stroke="black" cx="285.75" cy="-73.5" rx="27" ry="18"/>
<text text-anchor="middle" x="285.75" y="-68.45" font-family="Times,serif" font-size="14.00">*</text>
</g>
<!-- 4552372960*&#45;&gt;4552372960 -->
<g id="edge8" class="edge">
<title>4552372960*&#45;&gt;4552372960</title>
<path fill="none" stroke="black" d="M312.9,-73.5C320.19,-73.5 328.65,-73.5 337.78,-73.5"/>
<polygon fill="black" stroke="black" points="337.77,-77 347.77,-73.5 337.77,-70 337.77,-77"/>
</g>
<!-- 4552371520 -->
<g id="node22" class="node">
<title>4552371520</title>
<polygon fill="none" stroke="black" points="0,-55.5 0,-91.5 222.75,-91.5 222.75,-55.5 0,-55.5"/>
<text text-anchor="middle" x="16.25" y="-68.7" font-family="Times,serif" font-size="14.00">w1</text>
<polyline fill="none" stroke="black" points="32.5,-56 32.5,-91.5"/>
<text text-anchor="middle" x="74.62" y="-68.7" font-family="Times,serif" font-size="14.00">data &#45;3.0000</text>
<polyline fill="none" stroke="black" points="116.75,-56 116.75,-91.5"/>
<text text-anchor="middle" x="169.75" y="-68.7" font-family="Times,serif" font-size="14.00">grad &#45;5245.3662</text>
</g>
<!-- 4552371520&#45;&gt;4552372960* -->
<g id="edge14" class="edge">
<title>4552371520&#45;&gt;4552372960*</title>
<path fill="none" stroke="black" d="M222.52,-73.5C231.28,-73.5 239.69,-73.5 247.33,-73.5"/>
<polygon fill="black" stroke="black" points="247.29,-77 257.29,-73.5 247.29,-70 247.29,-77"/>
</g>
<!-- 4552591728 -->
<g id="node23" class="node">
<title>4552591728</title>
<polygon fill="none" stroke="black" points="1805.25,-81.5 1805.25,-117.5 2004,-117.5 2004,-81.5 1805.25,-81.5"/>
<text text-anchor="middle" x="1815.12" y="-94.7" font-family="Times,serif" font-size="14.00"> </text>
<polyline fill="none" stroke="black" points="1825,-82 1825,-117.5"/>
<text text-anchor="middle" x="1864.88" y="-94.7" font-family="Times,serif" font-size="14.00">data 5.8284</text>
<polyline fill="none" stroke="black" points="1904.75,-82 1904.75,-117.5"/>
<text text-anchor="middle" x="1954.38" y="-94.7" font-family="Times,serif" font-size="14.00">grad &#45;224.9906</text>
</g>
<!-- 4552591728&#45;&gt;4552591968+ -->
<g id="edge28" class="edge">
<title>4552591728&#45;&gt;4552591968+</title>
<path fill="none" stroke="black" d="M2003.99,-116.06C2013.07,-117.59 2021.82,-119.06 2029.75,-120.4"/>
<polygon fill="black" stroke="black" points="2028.9,-123.97 2039.34,-122.18 2030.06,-117.07 2028.9,-123.97"/>
</g>
<!-- 4552591728&#45;&gt;4552593072+ -->
<g id="edge19" class="edge">
<title>4552591728&#45;&gt;4552593072+</title>
<path fill="none" stroke="black" d="M2003.99,-82.33C2013.07,-80.74 2021.82,-79.21 2029.75,-77.83"/>
<polygon fill="black" stroke="black" points="2030.09,-81.15 2039.34,-75.98 2028.89,-74.25 2030.09,-81.15"/>
</g>
<!-- 4552591728exp&#45;&gt;4552591728 -->
<g id="edge9" class="edge">
<title>4552591728exp&#45;&gt;4552591728</title>
<path fill="none" stroke="black" d="M1769.73,-99.5C1777.09,-99.5 1785.56,-99.5 1794.59,-99.5"/>
<polygon fill="black" stroke="black" points="1794.42,-103 1804.42,-99.5 1794.42,-96 1794.42,-103"/>
</g>
<!-- 4552376272 -->
<g id="node25" class="node">
<title>4552376272</title>
<polygon fill="none" stroke="black" points="761.25,-27.5 761.25,-63.5 969.75,-63.5 969.75,-27.5 761.25,-27.5"/>
<text text-anchor="middle" x="772.62" y="-40.7" font-family="Times,serif" font-size="14.00">b</text>
<polyline fill="none" stroke="black" points="784,-28 784,-63.5"/>
<text text-anchor="middle" x="823.88" y="-40.7" font-family="Times,serif" font-size="14.00">data 6.8814</text>
<polyline fill="none" stroke="black" points="863.75,-28 863.75,-63.5"/>
<text text-anchor="middle" x="916.75" y="-40.7" font-family="Times,serif" font-size="14.00">grad &#45;2622.6831</text>
</g>
<!-- 4552376272&#45;&gt;4551209456+ -->
<g id="edge13" class="edge">
<title>4552376272&#45;&gt;4551209456+</title>
<path fill="none" stroke="black" d="M969.65,-58.84C994.38,-62.04 1019.2,-65.25 1038.56,-67.75"/>
<polygon fill="black" stroke="black" points="1037.92,-71.33 1048.29,-69.14 1038.82,-64.39 1037.92,-71.33"/>
</g>
<!-- 4552372192 -->
<g id="node26" class="node">
<title>4552372192</title>
<polygon fill="none" stroke="black" points="6,-0.5 6,-36.5 216.75,-36.5 216.75,-0.5 6,-0.5"/>
<text text-anchor="middle" x="20.75" y="-13.7" font-family="Times,serif" font-size="14.00">x1</text>
<polyline fill="none" stroke="black" points="35.5,-1 35.5,-36.5"/>
<text text-anchor="middle" x="75.38" y="-13.7" font-family="Times,serif" font-size="14.00">data 2.0000</text>
<polyline fill="none" stroke="black" points="115.25,-1 115.25,-36.5"/>
<text text-anchor="middle" x="166" y="-13.7" font-family="Times,serif" font-size="14.00">grad 7868.0492</text>
</g>
<!-- 4552372192&#45;&gt;4552372960* -->
<g id="edge24" class="edge">
<title>4552372192&#45;&gt;4552372960*</title>
<path fill="none" stroke="black" d="M193.35,-36.48C203.33,-39.24 213.33,-42.25 222.75,-45.5 233.11,-49.07 244.1,-53.73 253.91,-58.22"/>
<polygon fill="black" stroke="black" points="252.09,-61.7 262.62,-62.79 255.06,-55.37 252.09,-61.7"/>
</g>
<!-- 4551209456 -->
<g id="node27" class="node">
<title>4551209456</title>
<polygon fill="none" stroke="black" points="1139.25,-54.5 1139.25,-90.5 1347.75,-90.5 1347.75,-54.5 1139.25,-54.5"/>
<text text-anchor="middle" x="1150.62" y="-67.7" font-family="Times,serif" font-size="14.00">n</text>
<polyline fill="none" stroke="black" points="1162,-55 1162,-90.5"/>
<text text-anchor="middle" x="1201.88" y="-67.7" font-family="Times,serif" font-size="14.00">data 0.8814</text>
<polyline fill="none" stroke="black" points="1241.75,-55 1241.75,-90.5"/>
<text text-anchor="middle" x="1294.75" y="-67.7" font-family="Times,serif" font-size="14.00">grad &#45;2622.6831</text>
</g>
<!-- 4551209456&#45;&gt;4552591584* -->
<g id="edge20" class="edge">
<title>4551209456&#45;&gt;4552591584*</title>
<path fill="none" stroke="black" d="M1347.75,-89.37C1356.88,-90.86 1365.66,-92.3 1373.59,-93.59"/>
<polygon fill="black" stroke="black" points="1372.75,-97.16 1383.18,-95.32 1373.88,-90.26 1372.75,-97.16"/>
</g>
<!-- 4551209456+&#45;&gt;4551209456 -->
<g id="edge10" class="edge">
<title>4551209456+&#45;&gt;4551209456</title>
<path fill="none" stroke="black" d="M1103.43,-72.5C1110.83,-72.5 1119.37,-72.5 1128.52,-72.5"/>
<polygon fill="black" stroke="black" points="1128.5,-76 1138.5,-72.5 1128.5,-69 1128.5,-76"/>
</g>
</g>
</svg>
