<?xml version="1.0" encoding="UTF-8" standalone="no"?>
<!DOCTYPE svg PUBLIC "-//W3C//DTD SVG 1.1//EN"
 "http://www.w3.org/Graphics/SVG/1.1/DTD/svg11.dtd">
<!-- Generated by graphviz version 8.1.0 (20230707.0739)
 -->
<!-- Pages: 1 -->
<svg width="502pt" height="45pt"
 viewBox="0.00 0.00 501.50 45.00" xmlns="http://www.w3.org/2000/svg" xmlns:xlink="http://www.w3.org/1999/xlink">
<g id="graph0" class="graph" transform="scale(1 1) rotate(0) translate(4 41)">
<polygon fill="white" stroke="none" points="-4,4 -4,-41 497.5,-41 497.5,4 -4,4"/>
<!-- 4552373296 -->
<g id="node1" class="node">
<title>4552373296</title>
<polygon fill="none" stroke="black" points="0,-0.5 0,-36.5 183.75,-36.5 183.75,-0.5 0,-0.5"/>
<text text-anchor="middle" x="11.38" y="-13.7" font-family="Times,serif" font-size="14.00">b</text>
<polyline fill="none" stroke="black" points="22.75,-1 22.75,-36.5"/>
<text text-anchor="middle" x="62.62" y="-13.7" font-family="Times,serif" font-size="14.00">data 3.0000</text>
<polyline fill="none" stroke="black" points="102.5,-1 102.5,-36.5"/>
<text text-anchor="middle" x="143.12" y="-13.7" font-family="Times,serif" font-size="14.00">grad 2.0000</text>
</g>
<!-- 4552374832+ -->
<g id="node3" class="node">
<title>4552374832+</title>
<ellipse fill="none" stroke="black" cx="246.75" cy="-18.5" rx="27" ry="18"/>
<text text-anchor="middle" x="246.75" y="-13.45" font-family="Times,serif" font-size="14.00">+</text>
</g>
<!-- 4552373296&#45;&gt;4552374832+ -->
<g id="edge2" class="edge">
<title>4552373296&#45;&gt;4552374832+</title>
<path fill="none" stroke="black" d="M183.57,-18.5C192.3,-18.5 200.76,-18.5 208.5,-18.5"/>
<polygon fill="black" stroke="black" points="208.25,-22 218.25,-18.5 208.25,-15 208.25,-22"/>
</g>
<!-- 4552374832 -->
<g id="node2" class="node">
<title>4552374832</title>
<polygon fill="none" stroke="black" points="309.75,-0.5 309.75,-36.5 493.5,-36.5 493.5,-0.5 309.75,-0.5"/>
<text text-anchor="middle" x="321.12" y="-13.7" font-family="Times,serif" font-size="14.00">b</text>
<polyline fill="none" stroke="black" points="332.5,-1 332.5,-36.5"/>
<text text-anchor="middle" x="372.38" y="-13.7" font-family="Times,serif" font-size="14.00">data 6.0000</text>
<polyline fill="none" stroke="black" points="412.25,-1 412.25,-36.5"/>
<text text-anchor="middle" x="452.88" y="-13.7" font-family="Times,serif" font-size="14.00">grad 1.0000</text>
</g>
<!-- 4552374832+&#45;&gt;4552374832 -->
<g id="edge1" class="edge">
<title>4552374832+&#45;&gt;4552374832</title>
<path fill="none" stroke="black" d="M274.03,-18.5C281.45,-18.5 290.01,-18.5 299.1,-18.5"/>
<polygon fill="black" stroke="black" points="298.97,-22 308.97,-18.5 298.97,-15 298.97,-22"/>
</g>
</g>
</svg>
